{"title":"Suite.Francaise.2014.720p.HC.WEBRip.XviD.MP3-RARBG","uid":11884282,"size":3090680005,"categoryP":"video","categoryS":"movies","magnet":"?xt=urn:btih:0176ad873ff1174d6e03488445b44a3e62353289&amp;dn=Suite.Francaise.2014.720p.HC.WEBRip.XviD.MP3-RARBG&amp;tr=udp%3A%2F%2Ftracker.openbittorrent.com%3A80&amp;tr=udp%3A%2F%2Fopen.demonii.com%3A1337&amp;tr=udp%3A%2F%2Ftracker.coppersurfer.tk%3A6969&amp;tr=udp%3A%2F%2Fexodus.desync.com%3A6969","seeders":29,"leechers":5,"uploader":"vickey1992","files":4,"time":1430768153,"description":"Format                                   : AVI\nFormat/Info                              : Audio Video Interleave\nFormat profile                           : OpenDML\nFile size                                : 2.88 GiB\nDuration                                 : 1h 42mn\nOverall bit rate                         : 4 003 Kbps\nMovie name                               : RARBG.COM - Suite.Francaise.2014.720p.HC.WEBRip.XviD.MP3-RARBG\nWriting library                          : VirtualDub build 35491/release\nComment                                  : RARBG.COM - Suite.Francaise.2014.720p.HC.WEBRip.XviD.MP3-RARBG\n\nVideo\nID                                       : 0\nFormat                                   : MPEG-4 Visual\nFormat profile                           : Simple@L5\nFormat settings, BVOP                    : No\nFormat settings, QPel                    : No\nFormat settings, GMC                     : No warppoints\nFormat settings, Matrix                  : Default (H.263)\nCodec ID                                 : XVID\nCodec ID/Hint                            : XviD\nDuration                                 : 1h 42mn\nBit rate                                 : 3 796 Kbps\nWidth                                    : 1 276 pixels\nHeight                                   : 568 pixels\nDisplay aspect ratio                     : 2.25:1\nFrame rate                               : 25.000 fps\nColor space                              : YUV\nChroma subsampling                       : 4:2:0\nBit depth                                : 8 bits\nScan type                                : Progressive\nCompression mode                         : Lossy\nBits/(Pixel*Frame)                       : 0.210\nStream size                              : 2.73 GiB (95%)\nWriting library                          : Lavc56.34.100\n\nAudio\nID                                       : 1\nFormat                                   : MPEG Audio\nFormat version                           : Version 1\nFormat profile                           : Layer 3\nMode                                     : Joint stereo\nMode extension                           : MS Stereo\nCodec ID                                 : 55\nCodec ID/Hint                            : MP3\nDuration                                 : 1h 42mn\nBit rate mode                            : Constant\nBit rate                                 : 192 Kbps\nChannel(s)                               : 2 channels\nSampling rate                            : 48.0 KHz\nCompression mode                         : Lossy\nStream size                              : 141 MiB (5%)\nAlignment                                : Aligned on interleaves\nInterleave, duration                     : 24 ms (0.60 video frame)\nInterleave, preload duration             : 504 ms\nNotes:\nNo subs for german speaking parts.\nHardcoded Arabic subtitles.\nGreetz to all!","torrent":{"xt":"urn:btih:0176ad873ff1174d6e03488445b44a3e62353289","amp;dn":"Suite.Francaise.2014.720p.HC.WEBRip.XviD.MP3-RARBG","amp;tr":["udp%3A%2F%2Ftracker.openbittorrent.com%3A80","udp%3A%2F%2Fopen.demonii.com%3A1337","udp%3A%2F%2Ftracker.coppersurfer.tk%3A6969","udp%3A%2F%2Fexodus.desync.com%3A6969"],"infoHash":"0176ad873ff1174d6e03488445b44a3e62353289","infoHashBuffer":{"type":"Buffer","data":[1,118,173,135,63,241,23,77,110,3,72,132,69,180,74,62,98,53,50,137]},"announce":[],"urlList":[]}}